<?xml version="1.0" encoding="utf-8"?>
<svg viewBox="353.3869 303.553 21.0231 20.0959" xmlns="http://www.w3.org/2000/svg">
  <rect x="353.389" y="305.93" width="6.056" height="17.623" rx="1" ry="1" style="fill: rgb(62, 158, 213);" transform="matrix(0.9999999999999999, 0, 0, 0.9999999999999999, 0, 0)"/>
  <rect x="360.441" y="303.553" width="6.056" height="20" rx="1" ry="1" style="fill: rgb(214, 143, 50);" transform="matrix(0.9999999999999999, 0, 0, 0.9999999999999999, 0, 0)"/>
  <rect x="300.996" y="225.307" width="6.056" height="18.545" rx="1" ry="1" style="fill: rgb(27, 181, 114);" transform="matrix(0.9941590428352355, -0.10792099684476852, 0.10792099684476852, 0.9941590428352355, 42.83465576171875, 113.70502471923828)"/>
  <rect x="1275.335" y="278.362" width="6.057" height="1.805" style="fill: rgb(20, 93, 160);" transform="matrix(0.9999999999999999, 0, 0, 0.9999999999999999, -921.9471435546875, 41.54758834838867)"/>
  <rect x="334.093" y="502.131" width="6.056" height="1.806" style="fill: rgb(20, 93, 160);" transform="matrix(0.9999999999999999, 0, 0, 0.9999999999999999, 26.347299575805664, -182.22100830078122)"/>
  <rect x="387.258" y="502.008" width="6.056" height="1.805" style="fill: rgb(20, 93, 160);" transform="matrix(0.9941590428352355, -0.10792099684476852, 0.10792099684476852, 0.9941590428352355, -71.17765045166013, -137.25630187988278)"/>
  <rect x="286.891" y="199.081" width="6.057" height="0.763" style="fill: rgb(20, 93, 160);" transform="matrix(0.9999999999999999, 0, 0, 0.9999999999999999, 66.49588775634766, 108.7907943725586)"/>
  <rect x="353.388" y="229.362" width="6.057" height="0.763" style="fill: rgb(20, 93, 160);" transform="matrix(0.9999999999999999, 0, 0, 0.9999999999999999, -0.00010800000745803118, 79.7007827758789)"/>
  <rect x="387.283" y="212.162" width="6.056" height="0.763" style="fill: rgb(20, 93, 160);" transform="matrix(0.9999999999999999, 0, 0, 0.9999999999999999, -26.842973709106445, 94.47261810302734)"/>
  <rect x="387.238" y="212.162" width="6.056" height="0.763" style="fill: rgb(20, 93, 160);" transform="matrix(0.9999999999999999, 0, 0, 0.9999999999999999, -26.79771614074707, 93.33238983154297)"/>
  <rect x="387.251" y="212.162" width="6.056" height="0.763" style="fill: rgb(20, 93, 160);" transform="matrix(0.9941590428352355, -0.10792099684476852, 0.10792099684476852, 0.9941590428352355, -41.172630310058594, 139.08335876464844)"/>
  <rect x="387.251" y="212.162" width="6.056" height="0.763" style="fill: rgb(20, 93, 160);" transform="matrix(0.9941590428352355, -0.10792099684476852, 0.10792099684476852, 0.9941590428352355, -41.288970947265625, 138.0116424560547)"/>
</svg>